<?xml version="1.0" standalone="no"?>
<!DOCTYPE svg PUBLIC "-//W3C//DTD SVG 20010904//EN"
 "http://www.w3.org/TR/2001/REC-SVG-20010904/DTD/svg10.dtd">
<svg version="1.0" xmlns="http://www.w3.org/2000/svg"
 width="15158.000000pt" height="5519.000000pt" viewBox="0 0 15158.000000 5519.000000"
 preserveAspectRatio="xMidYMid meet">

<g transform="translate(0.000000,5519.000000) scale(0.100000,-0.100000)"
fill="#000000" stroke="none">
<path d="M23500 46154 c-19 -2 -91 -9 -160 -15 -191 -16 -449 -63 -720 -130
-1840 -458 -2883 -1071 -3564 -2094 -445 -668 -753 -1528 -1035 -2885 -52
-250 -193 -985 -276 -1435 -594 -3237 -1227 -7880 -2009 -14730 -195 -1705
-248 -2177 -901 -8090 -346 -3134 -564 -5026 -730 -6355 -151 -1208 -161
-1733 -40 -2188 132 -497 452 -857 994 -1119 510 -246 1054 -354 1706 -340
421 9 733 62 1083 182 513 175 892 454 1148 841 219 333 397 822 513 1409 97
488 147 916 221 1885 45 581 59 735 95 1015 77 599 130 1349 285 4020 80 1375
125 2125 175 2895 175 2669 344 4322 526 5135 37 167 88 342 103 353 6 5 69
30 140 56 308 114 699 293 990 453 539 296 1062 671 1563 1119 161 144 527
508 688 684 1187 1296 2178 3017 2910 5055 1212 3373 1563 7327 895 10070
-303 1243 -842 2258 -1606 3019 -716 715 -1559 1115 -2494 1186 -124 9 -417
11 -500 4z m-711 -9819 c222 -187 422 -451 522 -690 325 -777 -128 -1571
-1193 -2096 -82 -40 -151 -70 -154 -66 -16 16 226 1441 316 1861 147 690 290
1062 407 1066 7 0 53 -34 102 -75z"/>
<path d="M84006 43490 c-294 -19 -536 -60 -912 -155 -1239 -310 -2066 -674
-2724 -1199 -160 -128 -458 -426 -586 -586 -456 -572 -777 -1277 -1049 -2308
-106 -400 -172 -711 -380 -1767 -326 -1653 -703 -3448 -1670 -7935 -1436
-6667 -2031 -9542 -2619 -12670 -592 -3145 -1048 -6037 -1168 -7410 -7 -82
-13 -290 -13 -480 0 -351 9 -452 55 -661 123 -551 444 -931 1025 -1210 478
-229 995 -339 1595 -339 315 0 581 28 859 91 549 125 1049 400 1291 711 383
492 879 1782 1445 3758 410 1431 843 3187 1134 4595 130 629 168 869 326 2040
229 1698 354 2383 581 3184 54 192 207 665 222 688 4 7 50 28 102 47 2034 737
3803 2435 5142 4936 1242 2318 2050 5241 2242 8110 54 802 54 1668 0 2410
-147 2022 -655 3499 -1593 4630 -144 175 -493 518 -666 656 -612 488 -1275
769 -2000 848 -179 19 -474 27 -639 16z m-748 -9807 c174 -237 296 -501 355
-768 18 -86 22 -130 22 -320 0 -191 -3 -234 -23 -322 -102 -466 -397 -900
-853 -1255 -122 -95 -279 -202 -286 -195 -7 7 138 904 212 1312 181 992 335
1508 477 1595 18 11 36 20 40 20 3 0 28 -30 56 -67z"/>
<path d="M34605 41229 c-592 -38 -1085 -291 -1450 -744 -612 -760 -1053 -2057
-1399 -4110 -95 -563 -167 -1063 -316 -2200 -183 -1394 -226 -1660 -405 -2506
-917 -4323 -1388 -6786 -1754 -9164 -92 -592 -109 -685 -312 -1695 -351 -1747
-453 -2400 -521 -3335 -19 -256 -16 -948 5 -1163 45 -467 127 -834 258 -1148
297 -717 884 -1167 1694 -1301 139 -23 580 -26 720 -4 627 94 1132 348 1537
770 309 322 519 723 617 1176 12 54 91 582 176 1174 889 6206 1657 11114 2441
15616 244 1403 253 1444 573 2565 206 723 259 914 340 1220 305 1156 428 2013
381 2655 -43 574 -195 1005 -471 1331 -481 568 -1329 915 -2114 863z"/>
<path d="M133870 41143 c-634 -63 -1256 -275 -1932 -659 -913 -518 -1909
-1370 -2905 -2484 -1031 -1154 -2079 -2636 -2797 -3953 -109 -201 -517 -1017
-721 -1442 -1556 -3255 -2549 -6160 -2975 -8705 -105 -633 -169 -1195 -212
-1865 -17 -267 -17 -1210 0 -1455 80 -1158 266 -2020 613 -2832 508 -1190
1339 -2196 2380 -2881 232 -153 380 -237 644 -367 616 -303 1240 -482 1930
-555 209 -22 679 -30 895 -16 877 59 1707 294 2535 720 1745 897 3061 2050
3877 3396 168 278 288 514 500 980 723 1590 1252 3165 1483 4419 230 1242 180
2196 -146 2833 -201 390 -593 770 -1093 1057 -618 356 -1453 605 -2361 705
-539 60 -1019 65 -1360 15 -476 -69 -1023 -241 -1493 -470 -238 -115 -333
-169 -532 -299 -424 -278 -714 -581 -870 -907 -227 -477 -130 -947 294 -1429
154 -175 337 -313 548 -414 161 -76 283 -116 606 -196 414 -103 549 -154 691
-263 266 -205 416 -606 438 -1171 38 -984 -501 -2246 -1411 -3305 -122 -142
-425 -449 -567 -574 -294 -261 -630 -496 -907 -635 l-84 -42 -81 27 c-439 145
-771 398 -1026 780 -705 1058 -703 3052 5 5878 484 1930 1338 4334 2284 6426
237 524 759 1547 1123 2200 820 1470 1599 2399 2532 3015 374 247 653 382
1385 670 973 382 1277 529 1575 760 149 116 281 268 348 400 67 133 93 322 67
482 -55 342 -321 749 -782 1199 -574 559 -1191 868 -1893 949 -117 14 -500 19
-605 8z"/>
<path d="M53055 40908 c-569 -57 -1086 -344 -1451 -803 -202 -255 -320 -483
-563 -1093 -258 -645 -382 -1089 -422 -1507 -16 -166 -6 -513 25 -830 44 -465
50 -580 50 -980 0 -390 -8 -571 -44 -975 -36 -403 -48 -666 -80 -1745 -28
-945 -43 -1310 -75 -1885 -133 -2346 -452 -3829 -980 -4546 -125 -170 -263
-306 -289 -285 -23 19 -191 358 -260 525 -317 761 -519 1761 -656 3236 -32
347 -57 660 -115 1450 -90 1223 -133 1689 -205 2275 -205 1647 -549 2753
-1105 3544 -254 362 -624 713 -970 920 -541 324 -1217 503 -1900 504 -249 1
-386 -12 -595 -53 -536 -107 -977 -344 -1393 -749 -669 -652 -1164 -1646
-1675 -3366 -56 -188 -107 -367 -381 -1340 -280 -994 -464 -1792 -656 -2840
-193 -1052 -306 -1804 -600 -3991 -209 -1555 -312 -2268 -376 -2589 -52 -259
-113 -530 -304 -1350 -370 -1584 -538 -2414 -669 -3295 -219 -1469 -227 -2612
-25 -3414 213 -843 645 -1343 1307 -1510 322 -81 736 -81 1157 0 499 96 1138
317 1474 508 294 168 486 363 588 597 81 189 114 393 138 869 28 558 43 716
105 1115 101 639 164 1189 295 2580 136 1440 201 2022 306 2744 202 1401 489
2502 862 3320 65 141 74 158 80 150 2 -2 21 -26 44 -54 189 -233 413 -660 631
-1201 196 -487 287 -745 797 -2279 515 -1547 643 -1912 905 -2570 433 -1085
856 -1894 1314 -2510 281 -377 638 -734 946 -944 687 -470 1448 -559 2287
-269 618 213 1377 692 1853 1168 752 751 1227 1827 1454 3291 112 720 162
1378 221 2894 33 866 59 1243 126 1835 99 885 223 1727 469 3185 371 2197 472
2838 579 3690 71 564 114 983 156 1530 72 936 133 1356 330 2275 41 190 86
409 99 488 85 484 82 895 -10 1492 -55 358 -186 954 -255 1165 -76 231 -230
510 -392 710 -93 115 -315 328 -437 419 -497 370 -1131 553 -1715 494z"/>
<path d="M97897 40430 c-326 -31 -684 -124 -1011 -261 -1178 -495 -2239 -1563
-3163 -3184 -586 -1029 -1114 -2257 -1630 -3790 -303 -903 -551 -1731 -943
-3145 -89 -322 -202 -729 -252 -905 -49 -176 -186 -669 -303 -1095 -1016
-3689 -2038 -7286 -3271 -11515 -135 -462 -259 -885 -275 -940 -78 -261 -87
-626 -24 -941 154 -765 746 -1270 1590 -1355 160 -16 460 -6 638 21 423 64
820 230 1167 488 138 103 382 344 504 497 108 136 249 347 352 525 141 246
431 834 551 1119 97 230 227 655 423 1381 289 1068 441 1560 626 2028 290 731
570 1158 944 1438 378 284 703 423 983 424 551 1 901 -519 1024 -1520 15 -123
18 -227 18 -690 0 -300 -6 -651 -13 -780 -89 -1699 -89 -2483 3 -3205 146
-1152 539 -1833 1210 -2099 219 -86 448 -121 750 -113 355 10 690 75 1115 216
346 116 560 213 754 341 1103 729 1710 2435 1866 5245 32 589 54 1634 45 2185
-3 179 -10 748 -16 1265 -14 1264 -20 1108 131 3425 76 1168 109 1688 140
2205 173 2957 191 5065 60 6935 -45 633 -107 1239 -186 1795 -136 966 -511
1897 -1055 2620 -581 772 -1310 1245 -2105 1365 -157 24 -499 34 -647 20z
m-1373 -9611 c33 -26 88 -142 115 -244 92 -354 136 -1157 102 -1880 -83 -1760
-373 -2908 -831 -3292 -78 -65 -202 -127 -287 -144 -35 -6 -101 -10 -147 -7
-476 25 -621 743 -406 2015 171 1007 557 2247 938 3008 221 443 402 634 516
544z"/>
<path d="M67520 40234 c-149 -14 -264 -29 -380 -50 -1493 -272 -3201 -1525
-4960 -3639 -809 -972 -1622 -2147 -2230 -3225 -137 -243 -584 -1130 -835
-1655 -2367 -4959 -3426 -9097 -3149 -12315 52 -608 161 -1224 304 -1720 512
-1768 1695 -3229 3250 -4015 629 -317 1254 -501 1980 -582 236 -26 882 -26
1120 0 885 97 1660 345 2505 802 846 457 1482 892 2113 1444 205 179 595 566
767 761 491 556 862 1116 1163 1755 747 1587 1319 3212 1586 4512 180 874 230
1637 145 2228 -56 396 -179 747 -347 1000 -475 710 -1429 1239 -2687 1489
-512 102 -982 148 -1505 148 -244 0 -323 -4 -455 -21 -307 -41 -594 -109 -925
-220 -1037 -349 -1832 -938 -2070 -1534 -183 -458 -77 -900 324 -1357 159
-180 337 -314 559 -420 157 -75 311 -124 643 -205 148 -37 316 -84 374 -106
399 -150 595 -439 682 -1004 25 -169 34 -477 19 -655 -64 -725 -390 -1551
-919 -2330 -548 -807 -1230 -1453 -1925 -1825 l-108 -57 -62 17 c-101 28 -291
109 -397 170 -643 363 -1027 1077 -1144 2125 -48 424 -50 1024 -5 1565 147
1795 795 4250 1844 6980 426 1108 921 2260 1253 2915 659 1299 1016 1940 1407
2525 366 548 647 898 1030 1281 312 312 571 528 890 738 395 262 654 387 1470
708 556 218 763 307 1016 434 499 252 770 497 870 787 122 355 -18 758 -440
1262 -121 145 -455 472 -601 589 -515 411 -1054 636 -1664 695 -99 10 -419 13
-506 5z"/>
<path d="M119515 39594 c-348 -36 -658 -138 -932 -305 -271 -166 -549 -451
-736 -755 -80 -132 -151 -277 -265 -545 -310 -728 -482 -1236 -566 -1674 -62
-326 -70 -520 -49 -1195 22 -715 9 -1161 -52 -1830 -32 -357 -45 -633 -75
-1635 -34 -1120 -59 -1712 -101 -2330 -157 -2353 -517 -3766 -1113 -4372 -62
-62 -116 -113 -122 -113 -13 0 -136 229 -203 377 -343 756 -555 1713 -700
3158 -40 402 -81 891 -141 1715 -120 1633 -196 2349 -331 3106 -256 1444 -677
2433 -1319 3098 -550 570 -1247 893 -2136 990 -855 94 -1570 -102 -2174 -595
-626 -511 -1125 -1334 -1573 -2594 -173 -488 -289 -874 -655 -2180 -273 -972
-412 -1546 -581 -2390 -238 -1190 -375 -2075 -750 -4870 -170 -1261 -274
-1970 -327 -2230 -72 -348 -149 -656 -425 -1695 -438 -1643 -639 -2518 -788
-3420 -181 -1092 -218 -1981 -110 -2640 162 -991 646 -1540 1452 -1645 138
-18 424 -20 583 -4 354 35 717 123 1274 308 496 166 812 308 1040 470 94 66
251 221 308 304 160 232 230 475 327 1132 25 171 65 434 90 585 104 645 171
1215 285 2425 180 1905 268 2657 410 3500 167 991 386 1827 649 2485 98 245
192 452 206 453 16 1 107 -117 196 -257 146 -230 327 -600 488 -1000 189 -467
306 -804 795 -2276 465 -1402 586 -1748 821 -2355 523 -1346 1029 -2290 1584
-2955 115 -139 311 -342 440 -457 392 -351 815 -566 1286 -655 106 -20 151
-23 390 -23 215 0 292 4 380 18 618 103 1252 399 1932 905 408 304 722 634
998 1052 503 759 816 1725 979 3020 77 605 118 1203 161 2345 42 1101 68 1462
161 2250 93 795 219 1629 449 2990 502 2960 624 3834 730 5205 72 937 156
1434 390 2325 189 715 222 937 212 1418 -7 364 -41 642 -138 1112 -116 567
-191 792 -360 1072 -121 201 -324 433 -519 597 -350 293 -791 491 -1250 561
-101 15 -441 28 -525 19z"/>
</g>
</svg>
